<svg xmlns="http://www.w3.org/2000/svg" style="display:none">
<!-- sukashi icons v1.1 (59種) / 24x24 grid / stroke 1.5 / round cap-join / currentColor -->

<!-- ナビゲーション -->
<symbol id="sk-i-search" viewBox="0 0 24 24"><circle cx="11" cy="11" r="6.5"/><path d="M15.8 15.8 20 20"/></symbol>
<symbol id="sk-i-plus" viewBox="0 0 24 24"><path d="M12 5v14M5 12h14"/></symbol>
<symbol id="sk-i-minus" viewBox="0 0 24 24"><path d="M5 12h14"/></symbol>
<symbol id="sk-i-close" viewBox="0 0 24 24"><path d="m6 6 12 12M18 6 6 18"/></symbol>
<symbol id="sk-i-check" viewBox="0 0 24 24"><path d="m5 12.5 4.5 4.5L19 7"/></symbol>
<symbol id="sk-i-chevron-up" viewBox="0 0 24 24"><path d="m6 15 6-6 6 6"/></symbol>
<symbol id="sk-i-chevron-down" viewBox="0 0 24 24"><path d="m6 9 6 6 6-6"/></symbol>
<symbol id="sk-i-chevron-left" viewBox="0 0 24 24"><path d="m15 6-6 6 6 6"/></symbol>
<symbol id="sk-i-chevron-right" viewBox="0 0 24 24"><path d="m9 6 6 6-6 6"/></symbol>
<symbol id="sk-i-arrow-up" viewBox="0 0 24 24"><path d="M12 20V4M5 11l7-7 7 7"/></symbol>
<symbol id="sk-i-arrow-down" viewBox="0 0 24 24"><path d="M12 4v16M5 13l7 7 7-7"/></symbol>
<symbol id="sk-i-arrow-left" viewBox="0 0 24 24"><path d="M20 12H4M11 5l-7 7 7 7"/></symbol>
<symbol id="sk-i-arrow-right" viewBox="0 0 24 24"><path d="M4 12h16M13 5l7 7-7 7"/></symbol>
<symbol id="sk-i-menu" viewBox="0 0 24 24"><path d="M4 7h16M4 12h16M4 17h16"/></symbol>
<symbol id="sk-i-more" viewBox="0 0 24 24"><circle cx="5" cy="12" r="1.4" fill="currentColor" stroke="none"/><circle cx="12" cy="12" r="1.4" fill="currentColor" stroke="none"/><circle cx="19" cy="12" r="1.4" fill="currentColor" stroke="none"/></symbol>
<symbol id="sk-i-external" viewBox="0 0 24 24"><path d="M14 4h6v6M20 4l-9 9M18 13v7H4V6h7"/></symbol>

<!-- 基本オブジェクト -->
<symbol id="sk-i-home" viewBox="0 0 24 24"><path d="m4 11 8-7 8 7M6 10v10h12V10"/></symbol>
<symbol id="sk-i-user" viewBox="0 0 24 24"><circle cx="12" cy="8" r="3.5"/><path d="M5 20c1.5-3.5 4-5 7-5s5.5 1.5 7 5"/></symbol>
<symbol id="sk-i-users" viewBox="0 0 24 24"><circle cx="9" cy="9" r="3"/><path d="M3 19c1.2-3 3.3-4.5 6-4.5s4.8 1.5 6 4.5M15.5 6.2A2.8 2.8 0 1 1 17 11.4M17 14.6c2 .4 3.2 1.8 4 4.4"/></symbol>
<symbol id="sk-i-bell" viewBox="0 0 24 24"><path d="M18 16v-5a6 6 0 0 0-12 0v5l-2 3h16l-2-3M10 21a2 2 0 0 0 4 0"/></symbol>
<symbol id="sk-i-calendar" viewBox="0 0 24 24"><rect x="4" y="5" width="16" height="15" rx="2.5"/><path d="M4 10h16M8 3v4M16 3v4"/></symbol>
<symbol id="sk-i-clock" viewBox="0 0 24 24"><circle cx="12" cy="12" r="8.5"/><path d="M12 7v5l3.5 2"/></symbol>
<symbol id="sk-i-settings" viewBox="0 0 24 24"><path d="M4 8h9M17.5 8H20M4 16h3.5M12 16h8"/><circle cx="15" cy="8" r="2.2"/><circle cx="9.5" cy="16" r="2.2"/></symbol>
<symbol id="sk-i-star" viewBox="0 0 24 24"><path d="m12 4 2.4 4.9 5.4.8-3.9 3.8.9 5.4-4.8-2.5-4.8 2.5.9-5.4-3.9-3.8 5.4-.8L12 4z"/></symbol>
<symbol id="sk-i-heart" viewBox="0 0 24 24"><path d="M12 20s-7-4.5-9-9a4.8 4.8 0 0 1 9-2.4A4.8 4.8 0 0 1 21 11c-2 4.5-9 9-9 9z"/></symbol>
<symbol id="sk-i-eye" viewBox="0 0 24 24"><path d="M2.5 12S6 5.5 12 5.5 21.5 12 21.5 12 18 18.5 12 18.5 2.5 12 2.5 12z"/><circle cx="12" cy="12" r="3"/></symbol>
<symbol id="sk-i-eye-off" viewBox="0 0 24 24"><path d="M4 4l16 16M9.9 6a9.4 9.4 0 0 1 2.1-.5c6 0 9.5 6.5 9.5 6.5a17 17 0 0 1-3 3.6M6 7.3A16.6 16.6 0 0 0 2.5 12S6 18.5 12 18.5a9 9 0 0 0 3.2-.6"/></symbol>
<symbol id="sk-i-lock" viewBox="0 0 24 24"><rect x="5.5" y="11" width="13" height="9" rx="2.5"/><path d="M8.5 11V8a3.5 3.5 0 0 1 7 0v3"/></symbol>
<symbol id="sk-i-globe" viewBox="0 0 24 24"><circle cx="12" cy="12" r="8.5"/><ellipse cx="12" cy="12" rx="3.8" ry="8.5"/><path d="M3.5 12h17"/></symbol>
<symbol id="sk-i-shield" viewBox="0 0 24 24"><path d="M12 3.5 19 6.2v5.3c0 4.6-2.9 7.6-7 9-4.1-1.4-7-4.4-7-9V6.2L12 3.5z"/><path d="m9 11.8 2.2 2.2 4-4.5"/></symbol>
<symbol id="sk-i-key" viewBox="0 0 24 24"><circle cx="8" cy="8" r="4.2"/><path d="m11 11 8.8 8.8M16.2 16.2l2.6-2.6"/></symbol>
<symbol id="sk-i-inbox" viewBox="0 0 24 24"><path d="M6 6.5h12l2.5 7v5H3.5v-5l2.5-7z"/><path d="M3.5 13.5H9a3 3 0 0 0 6 0h5.5"/></symbol>

<!-- コミュニケーション -->
<symbol id="sk-i-mail" viewBox="0 0 24 24"><rect x="3.5" y="5.5" width="17" height="13" rx="2.5"/><path d="m4.5 7.5 7.5 5.5 7.5-5.5"/></symbol>
<symbol id="sk-i-chat" viewBox="0 0 24 24"><path d="M20 5.5H4v10.5h4v4l5-4h7V5.5z"/></symbol>
<symbol id="sk-i-share" viewBox="0 0 24 24"><path d="M12 3v12M8 7l4-4 4 4M6 11H5v10h14V11h-1"/></symbol>
<symbol id="sk-i-link" viewBox="0 0 24 24"><path d="m9.5 14.5 5-5M8 12l-2.5 2.5a3.5 3.5 0 0 0 5 5L13 17M16 12l2.5-2.5a3.5 3.5 0 0 0-5-5L11 7"/></symbol>
<symbol id="sk-i-copy" viewBox="0 0 24 24"><rect x="9" y="9" width="11" height="11" rx="2"/><path d="M15 5H7a2 2 0 0 0-2 2v8"/></symbol>

<!-- 編集・操作 -->
<symbol id="sk-i-edit" viewBox="0 0 24 24"><path d="m4 20 1-4L16.5 4.5a2.12 2.12 0 0 1 3 3L8 19l-4 1zM14.5 6.5l3 3"/></symbol>
<symbol id="sk-i-trash" viewBox="0 0 24 24"><path d="M5 7h14M10 7V5h4v2M7 7l1 13h8l1-13M10 11v6M14 11v6"/></symbol>
<symbol id="sk-i-download" viewBox="0 0 24 24"><path d="M12 4v11M7 10l5 5 5-5M5 20h14"/></symbol>
<symbol id="sk-i-upload" viewBox="0 0 24 24"><path d="M12 20V9M7 14l5-5 5 5M5 4h14"/></symbol>
<symbol id="sk-i-filter" viewBox="0 0 24 24"><path d="M4 6h16M7 12h10M10 18h4"/></symbol>
<symbol id="sk-i-sort" viewBox="0 0 24 24"><path d="M7 4v14M4 15l3 3 3-3M17 20V6M14 9l3-3 3 3"/></symbol>
<symbol id="sk-i-refresh" viewBox="0 0 24 24"><path d="M20 12a8 8 0 1 1-2.3-5.6M18 3v4h-4"/></symbol>
<symbol id="sk-i-restore" viewBox="0 0 24 24"><path d="M4 12a8 8 0 1 0 2.3-5.6M6 3v4h4M12 8v4l3 2"/></symbol>
<symbol id="sk-i-sparkle" viewBox="0 0 24 24"><path d="M11 4.5c.7 4 2.5 5.8 6.5 6.5-4 .7-5.8 2.5-6.5 6.5-.7-4-2.5-5.8-6.5-6.5 4-.7 5.8-2.5 6.5-6.5z"/><path d="M18.5 15.5c.3 1.7 1 2.4 2.7 2.7-1.7.3-2.4 1-2.7 2.7-.3-1.7-1-2.4-2.7-2.7 1.7-.3 2.4-1 2.7-2.7z"/></symbol>

<!-- メディア・ファイル -->
<symbol id="sk-i-folder" viewBox="0 0 24 24"><path d="M3.5 6.5h6l2 2.5h9v9.5h-17V6.5z"/></symbol>
<symbol id="sk-i-file" viewBox="0 0 24 24"><path d="M6.5 3.5h8l4 4v13h-12v-17zM14 3.5V8h4.5"/></symbol>
<symbol id="sk-i-image" viewBox="0 0 24 24"><rect x="3.5" y="5" width="17" height="14" rx="2.5"/><circle cx="9" cy="10" r="1.6"/><path d="m4.5 17 4.5-4 3 2.5 4-3.5 3.5 3.5"/></symbol>
<symbol id="sk-i-mic" viewBox="0 0 24 24"><rect x="9.5" y="3.5" width="5" height="10" rx="2.5"/><path d="M6 11a6 6 0 0 0 12 0M12 17.5V21M9 21h6"/></symbol>
<symbol id="sk-i-play" viewBox="0 0 24 24"><path d="M8 5.5v13l11-6.5-11-6.5z"/></symbol>
<symbol id="sk-i-grid" viewBox="0 0 24 24"><rect x="4" y="4" width="6.5" height="6.5" rx="1.5"/><rect x="13.5" y="4" width="6.5" height="6.5" rx="1.5"/><rect x="4" y="13.5" width="6.5" height="6.5" rx="1.5"/><rect x="13.5" y="13.5" width="6.5" height="6.5" rx="1.5"/></symbol>
<symbol id="sk-i-chart" viewBox="0 0 24 24"><path d="M4 20h16M7 17v-5M12 17V5M17 17v-8"/></symbol>

<!-- コマース(EC向け) -->
<symbol id="sk-i-cart" viewBox="0 0 24 24"><circle cx="9.5" cy="19.5" r="1.4"/><circle cx="17" cy="19.5" r="1.4"/><path d="M3.5 4.5H6l2.4 11h9.8l2.3-8H7"/></symbol>
<symbol id="sk-i-tag" viewBox="0 0 24 24"><path d="M4 4.5h7l9 9-7 7-9-9v-7z"/><circle cx="8.5" cy="9" r="1.4"/></symbol>
<symbol id="sk-i-package" viewBox="0 0 24 24"><path d="m4 8 8-4 8 4v9l-8 4-8-4V8zM4 8l8 4 8-4M12 12v9"/></symbol>
<symbol id="sk-i-truck" viewBox="0 0 24 24"><path d="M2.5 7h12v9.5h-12zM14.5 10h4l2.5 3v3.5h-6.5"/><circle cx="7" cy="18.5" r="1.8"/><circle cx="17" cy="18.5" r="1.8"/></symbol>
<symbol id="sk-i-barcode" viewBox="0 0 24 24"><path d="M4 6v12M7.5 6v12M10.5 6v9M13.5 6v12M16.5 6v9M20 6v12"/></symbol>

<!-- ステータス -->
<symbol id="sk-i-warning" viewBox="0 0 24 24"><path d="M12 4 2.8 19.5h18.4L12 4zM12 10v4.5"/><circle cx="12" cy="17" r="0.9" fill="currentColor" stroke="none"/></symbol>
<symbol id="sk-i-info" viewBox="0 0 24 24"><circle cx="12" cy="12" r="8.5"/><path d="M12 11v5"/><circle cx="12" cy="8" r="0.9" fill="currentColor" stroke="none"/></symbol>
</svg>
